# Blender 5.1.2
# www.blender.org
mtllib Bomb.mtl
o Cube
v 0.457632 0.558660 -0.457632
v 0.457632 -0.356605 -0.457632
v 0.457632 0.558660 0.457632
v 0.457632 -0.356605 0.457632
v -0.457632 0.558660 -0.457632
v -0.457632 -0.356605 -0.457632
v -0.457632 0.558660 0.457632
v -0.457632 -0.356605 0.457632
v -0.515489 -0.414462 0.000000
v 0.000000 -0.414462 -0.515489
v 0.515489 0.101028 -0.515489
v -0.515489 0.101028 0.515489
v 0.515489 0.101028 0.515489
v -0.515489 0.101028 -0.515489
v 0.000000 0.616517 0.515489
v 0.515489 0.616517 0.000000
v 0.000000 -0.414462 0.515489
v -0.515489 0.616517 0.000000
v 0.000000 0.616517 -0.515489
v 0.515489 -0.414462 0.000000
v 0.000000 0.101028 -0.659572
v 0.659572 0.101028 0.000000
v 0.000000 -0.558545 0.000000
v -0.659572 0.101028 0.000000
v 0.000000 0.101028 0.659572
v -0.228816 0.587588 0.486561
v 0.486561 0.587588 0.228816
v -0.486561 0.587588 -0.228816
v 0.228816 0.587588 -0.486561
v 0.228816 0.587588 0.486561
v 0.486561 0.587588 -0.228816
v -0.486561 0.587588 0.228816
v -0.228816 0.587588 -0.486561
v 0.000000 0.683160 0.299696
v 0.000000 0.683160 -0.299696
v 0.299696 0.683160 0.000000
v -0.299696 0.683160 0.000000
v -0.205814 0.624457 -0.205814
v 0.205814 0.624457 -0.205814
v 0.205814 0.624457 0.205814
v -0.205814 0.624457 0.205814
v 0.000000 0.771687 -0.123302
v -0.123302 0.771687 0.000000
v 0.000000 0.771687 0.123302
v 0.123302 0.771687 0.000000
v -0.082840 0.826793 -0.082840
v 0.082840 0.826793 -0.082840
v 0.082840 0.826793 0.082840
v -0.082840 0.826793 0.082840
v 0.000000 1.129596 -0.123302
v 0.000000 1.129596 0.000000
v -0.123302 1.129596 0.000000
v 0.000000 1.129596 0.123302
v 0.123302 1.129596 0.000000
v -0.082840 1.129596 -0.082840
v 0.082840 1.129596 -0.082840
v 0.082840 1.129596 0.082840
v -0.082840 1.129596 0.082840
vn -0.1285 0.9834 0.1285
vn -0.2106 0.2106 0.9546
vn -0.9546 0.2106 -0.2106
vn 0.2106 -0.9546 0.2106
vn 0.9546 0.2106 0.2106
vn 0.2106 0.2106 -0.9546
vn 0.2106 -0.2106 -0.9546
vn -0.2106 -0.2106 -0.9546
vn -0.2106 0.2106 -0.9546
vn 0.9546 -0.2106 0.2106
vn 0.9546 -0.2106 -0.2106
vn 0.9546 0.2106 -0.2106
vn -0.2106 -0.9546 0.2106
vn -0.2106 -0.9546 -0.2106
vn 0.2106 -0.9546 -0.2106
vn -0.9546 -0.2106 -0.2106
vn -0.9546 -0.2106 0.2106
vn -0.9546 0.2106 0.2106
vn -0.2106 -0.2106 0.9546
vn 0.2106 -0.2106 0.9546
vn 0.2106 0.2106 0.9546
vn 0.2447 0.9514 0.1870
vn -0.6030 0.7432 -0.2899
vn -0.1870 0.9514 -0.2447
vn 0.2899 0.7432 0.6030
vn -0.2447 0.9514 -0.1870
vn -0.1285 0.9834 -0.1285
vn 0.1870 0.9514 -0.2447
vn 0.1285 0.9834 -0.1285
vn 0.2447 0.9514 -0.1870
vn 0.1285 0.9834 0.1285
vn 0.1870 0.9514 0.2447
vn -0.2899 0.7432 -0.6030
vn -0.2447 0.9514 0.1870
vn -0.6030 0.7432 0.2899
vn -0.1870 0.9514 0.2447
vn 0.4389 -0.0000 0.8985
vn -0.4389 -0.0000 0.8985
vn -0.8985 -0.0000 -0.4389
vn 0.8985 -0.0000 -0.4389
vn 0.6030 0.7432 0.2899
vn 0.2899 0.7432 -0.6030
vn -0.2899 0.7432 0.6030
vn 0.6030 0.7432 -0.2899
vn -0.0000 1.0000 -0.0000
vn 0.4389 -0.0000 -0.8985
vn -0.4389 -0.0000 -0.8985
vn -0.8985 -0.0000 0.4389
vn 0.8985 -0.0000 0.4389
vt 0.812500 0.687500
vt 0.875000 0.687500
vt 0.875000 0.750000
vt 0.812500 0.750000
vt 0.500000 0.875000
vt 0.625000 0.875000
vt 0.625000 0.937500
vt 0.625000 1.000000
vt 0.500000 1.000000
vt 0.500000 0.125000
vt 0.625000 0.125000
vt 0.625000 0.187500
vt 0.625000 0.250000
vt 0.500000 0.250000
vt 0.250000 0.625000
vt 0.375000 0.625000
vt 0.375000 0.750000
vt 0.250000 0.750000
vt 0.500000 0.625000
vt 0.625000 0.625000
vt 0.625000 0.687500
vt 0.625000 0.750000
vt 0.500000 0.750000
vt 0.500000 0.375000
vt 0.625000 0.375000
vt 0.625000 0.437500
vt 0.625000 0.500000
vt 0.500000 0.500000
vt 0.375000 0.375000
vt 0.375000 0.500000
vt 0.375000 0.250000
vt 0.625000 0.312500
vt 0.625000 0.562500
vt 0.125000 0.625000
vt 0.125000 0.750000
vt 0.125000 0.500000
vt 0.250000 0.500000
vt 0.375000 0.125000
vt 0.375000 0.000000
vt 0.500000 0.000000
vt 0.625000 0.000000
vt 0.625000 0.062500
vt 0.375000 0.875000
vt 0.375000 1.000000
vt 0.625000 0.812500
vt 0.687500 0.687500
vt 0.750000 0.687500
vt 0.750000 0.750000
vt 0.687500 0.750000
vt 0.812500 0.562500
vt 0.812500 0.625000
vt 0.875000 0.562500
vt 0.875000 0.625000
vt 0.750000 0.500000
vt 0.812500 0.500000
vt 0.750000 0.562500
vt 0.875000 0.500000
vt 0.687500 0.562500
vt 0.687500 0.625000
vt 0.687500 0.500000
vt 0.750000 0.625000
s 0
usemtl Material
f 41/1/1 32/2/1 7/3/1 26/4/1
f 25/5/2 15/6/2 26/7/2 7/8/2 12/9/2
f 24/10/3 18/11/3 28/12/3 5/13/3 14/14/3
f 23/15/4 20/16/4 4/17/4 17/18/4
f 22/19/5 16/20/5 27/21/5 3/22/5 13/23/5
f 21/24/6 19/25/6 29/26/6 1/27/6 11/28/6
f 10/29/7 21/24/7 11/28/7 2/30/7
f 6/31/8 14/14/8 21/24/8 10/29/8
f 14/14/9 5/13/9 33/32/9 19/25/9 21/24/9
f 20/16/10 22/19/10 13/23/10 4/17/10
f 2/30/11 11/28/11 22/19/11 20/16/11
f 11/28/12 1/27/12 31/33/12 16/20/12 22/19/12
f 9/34/13 23/15/13 17/18/13 8/35/13
f 6/36/14 10/37/14 23/15/14 9/34/14
f 10/37/15 2/30/15 20/16/15 23/15/15
f 9/38/16 24/10/16 14/14/16 6/31/16
f 8/39/17 12/40/17 24/10/17 9/38/17
f 12/40/18 7/41/18 32/42/18 18/11/18 24/10/18
f 17/43/19 25/5/19 12/9/19 8/44/19
f 4/17/20 13/23/20 25/5/20 17/43/20
f 13/23/21 3/22/21 30/45/21 15/6/21 25/5/21
f 40/46/22 34/47/22 15/48/22 30/49/22
f 38/50/23 37/51/23 43/51/23 46/50/23
f 38/50/24 28/52/24 18/53/24 37/51/24
f 34/47/25 40/46/25 48/46/25 44/47/25
f 19/54/26 33/55/26 38/50/26 35/56/26
f 33/55/27 5/57/27 28/52/27 38/50/27
f 31/33/28 39/58/28 36/59/28 16/20/28
f 1/27/29 29/60/29 39/58/29 31/33/29
f 29/60/30 19/54/30 35/56/30 39/58/30
f 27/21/31 40/46/31 30/49/31 3/22/31
f 16/20/32 36/59/32 40/46/32 27/21/32
f 35/56/33 38/50/33 46/50/33 42/56/33
f 34/47/34 41/1/34 26/4/34 15/48/34
f 37/51/35 41/1/35 49/1/35 43/51/35
f 37/51/36 18/53/36 32/2/36 41/1/36
f 44/47/37 48/46/37 57/46/37 53/47/37
f 49/1/38 44/47/38 53/47/38 58/1/38
f 46/50/39 43/51/39 52/51/39 55/50/39
f 45/59/40 47/58/40 56/58/40 54/59/40
f 40/46/41 36/59/41 45/59/41 48/46/41
f 39/58/42 35/56/42 42/56/42 47/58/42
f 41/1/43 34/47/43 44/47/43 49/1/43
f 36/59/44 39/58/44 47/58/44 45/59/44
f 56/58/45 50/56/45 51/61/45 54/59/45
f 50/56/45 55/50/45 52/51/45 51/61/45
f 54/59/45 51/61/45 53/47/45 57/46/45
f 51/61/45 52/51/45 58/1/45 53/47/45
f 47/58/46 42/56/46 50/56/46 56/58/46
f 42/56/47 46/50/47 55/50/47 50/56/47
f 43/51/48 49/1/48 58/1/48 52/51/48
f 48/46/49 45/59/49 54/59/49 57/46/49
