# Blender 5.2.2 LTS
# www.blender.org
mtllib TimmHorse.mtl
o Cube
v 0.817050 2.815509 -1.062038
v 0.853148 -0.292683 -0.854872
v 0.838170 1.872424 0.294307
v 0.609933 -0.602639 -0.298151
v 0.000000 -0.416311 -1.026778
v 1.003490 1.087750 -1.641460
v 0.680951 0.346609 0.188274
v 0.000000 2.102153 0.579957
v 0.868142 2.661224 -0.207867
v 0.000000 -1.026227 -0.087153
v 0.000000 3.376054 -0.971959
v 0.612074 -0.521705 -0.482216
v 0.000000 0.196970 -1.618580
v 1.062352 0.915252 -0.322020
v 0.000000 -0.857580 -0.317813
v 0.000000 -0.951403 0.164539
v 0.000000 3.037971 0.091864
v 0.468518 -0.773224 -0.524952
v 0.000000 -1.057307 -0.622450
v 0.849864 2.545607 -1.903082
v 1.000000 1.317538 -1.997285
v 0.000000 3.357986 -2.037981
v 0.000000 0.516235 -2.089777
v 0.000000 0.522434 0.374102
v 0.000000 -0.487678 0.427954
v 0.416228 -0.177339 0.315407
v 1.092286 1.530354 0.278859
v 0.000000 1.184713 0.612283
v 0.849864 0.752064 -2.840145
v 1.000000 -0.592809 -3.266918
v 0.000000 2.944319 -2.904502
v 0.000000 -0.352125 -2.733049
v 1.532599 0.235951 -3.715211
v 1.241956 -2.083960 -3.863911
v 0.000000 2.269368 -3.929972
v 0.000000 -2.438860 -3.671965
v 1.861253 -0.676267 -5.789362
v 2.212774 -2.882727 -6.739902
v 0.000000 1.423209 -4.808491
v 0.000000 -3.656952 -7.070878
v 2.163740 -0.295210 -11.392471
v 1.893790 -2.258071 -10.959044
v 0.000000 0.988234 -6.831246
v 0.000000 -2.974979 -10.693930
v 1.344660 -0.357998 -13.217487
v 1.367903 -2.735141 -13.400260
v 0.000000 0.024864 -13.079432
v 0.000000 -2.797442 -13.962581
v 0.000000 -1.440605 -14.525856
v 1.444540 -1.334759 -13.908078
v 1.114301 1.740661 -1.288294
v 1.289541 1.752208 -0.199434
v 1.363751 -2.438830 -13.091450
v 0.000000 -3.494690 -13.470534
v 1.007620 -8.708537 -5.424478
v 1.412353 -8.608426 -5.355357
v 0.920512 -8.586062 -6.042513
v 1.412353 -8.611291 -5.838691
v 0.618947 -8.420138 -12.070864
v 1.169290 -8.458541 -11.997769
v 1.169290 -8.458541 -12.611798
v 0.618947 -8.506813 -12.698040
v 1.728112 -5.174753 -5.628022
v 0.678838 -5.432601 -5.618833
v 0.313533 -5.514006 -6.600295
v 1.716016 -5.404261 -6.296452
v 0.264324 -5.383510 -11.962446
v 1.265731 -5.249271 -12.096807
v 1.272810 -5.307712 -13.224718
v 0.237195 -5.688377 -13.433177
v 0.915294 -7.537262 -5.556338
v 1.517089 -7.472632 -5.515121
v 0.954187 0.324859 -1.395090
v 1.093282 0.991208 -0.914488
v 1.541181 -7.377912 -6.091611
v 1.841275 -7.424292 -5.826754
v 2.036556 -2.150946 -5.664373
v 1.555459 -8.609872 -5.600486
v 1.489120 -7.753026 -12.019542
v 1.493246 -7.687638 -12.761759
v 1.467918 -8.458541 -12.348133
v 1.646284 -7.714552 -12.456257
v 1.834193 -2.388624 -12.499168
v 0.524095 2.810530 -0.089083
v 0.387374 3.110292 -1.014667
v 1.043911 3.752910 -0.600823
v 1.207513 3.640670 -0.618860
v 1.226966 3.581926 -0.293630
v 1.095969 3.638774 -0.248402
v 0.569070 2.891406 -0.168063
v 0.845697 2.771358 -0.263570
v 1.028877 3.557345 -0.296162
v 1.134204 3.511636 -0.332527
v 0.617401 -1.395366 -14.261816
v 0.000000 -0.575421 -13.671916
v 0.000000 -2.168566 -14.661357
v 0.617401 -1.395366 -14.421124
v 0.000000 -0.575421 -14.426540
v 0.000000 -2.890648 -14.939415
v 0.617401 -2.036054 -14.675375
v 0.000000 -1.057541 -14.750028
v 0.000000 -2.690507 -15.321418
v 0.307886 -2.645268 -15.057378
v 0.000000 -1.666756 -15.132030
v -0.817050 2.815509 -1.062038
v -0.853148 -0.292683 -0.854872
v -0.838170 1.872424 0.294307
v -0.609933 -0.602639 -0.298151
v -1.003490 1.087750 -1.641460
v -0.680951 0.346609 0.188274
v -0.868142 2.661224 -0.207867
v -0.612074 -0.521705 -0.482216
v -1.062352 0.915252 -0.322020
v -0.468518 -0.773224 -0.524952
v -0.849864 2.545607 -1.903082
v -1.000000 1.317538 -1.997285
v -0.416228 -0.177339 0.315407
v -1.092286 1.530354 0.278859
v -0.849864 0.752064 -2.840145
v -1.000000 -0.592809 -3.266918
v -1.532599 0.235951 -3.715211
v -1.241956 -2.083960 -3.863911
v -1.861253 -0.676267 -5.789362
v -2.212774 -2.882727 -6.739902
v -2.163740 -0.295210 -11.392471
v -1.893790 -2.258071 -10.959044
v -1.344660 -0.357998 -13.217487
v -1.367903 -2.735141 -13.400260
v -1.444540 -1.334759 -13.908078
v -1.114301 1.740661 -1.288294
v -1.289541 1.752208 -0.199434
v -1.363751 -2.438830 -13.091450
v -1.007620 -8.708537 -5.424478
v -1.412353 -8.608426 -5.355357
v -0.920512 -8.586062 -6.042513
v -1.412353 -8.611291 -5.838691
v -0.618947 -8.420138 -12.070864
v -1.169290 -8.458541 -11.997769
v -1.169290 -8.458541 -12.611798
v -0.618947 -8.506813 -12.698040
v -1.728112 -5.174753 -5.628022
v -0.678838 -5.432601 -5.618833
v -0.313533 -5.514006 -6.600295
v -1.716016 -5.404261 -6.296452
v -0.264324 -5.383510 -11.962446
v -1.265731 -5.249271 -12.096807
v -1.272810 -5.307712 -13.224718
v -0.237195 -5.688377 -13.433177
v -0.915294 -7.537262 -5.556338
v -1.517089 -7.472632 -5.515121
v -0.954187 0.324859 -1.395090
v -1.093282 0.991208 -0.914488
v -1.541181 -7.377912 -6.091611
v -1.841275 -7.424292 -5.826754
v -2.036556 -2.150946 -5.664373
v -1.555459 -8.609872 -5.600486
v -1.489120 -7.753026 -12.019542
v -1.493246 -7.687638 -12.761759
v -1.467918 -8.458541 -12.348133
v -1.646284 -7.714552 -12.456257
v -1.834193 -2.388624 -12.499168
v -0.524095 2.810530 -0.089083
v -0.387374 3.110292 -1.014667
v -1.043911 3.752910 -0.600823
v -1.207513 3.640670 -0.618860
v -1.226966 3.581926 -0.293630
v -1.095969 3.638774 -0.248402
v -0.569070 2.891406 -0.168063
v -0.845697 2.771358 -0.263570
v -1.028877 3.557345 -0.296162
v -1.134204 3.511636 -0.332527
v -0.617401 -1.395366 -14.261816
v -0.617401 -1.395366 -14.421124
v -0.617401 -2.036054 -14.675375
v -0.307886 -2.645268 -15.057378
vn 0.3512 -0.8030 -0.4815
vn 0.9070 -0.3160 0.2783
vn 0.5852 -0.6744 -0.4502
vn 0.2547 -0.5587 -0.7893
vn 0.9271 -0.2723 0.2574
vn 0.9611 -0.2459 0.1261
vn 0.9837 -0.1478 -0.1028
vn 0.3325 -0.5937 -0.7327
vn 0.7416 -0.4700 0.4788
vn 0.2538 0.0700 0.9647
vn 0.4280 0.4444 0.7870
vn 0.1753 0.4001 -0.8995
vn 0.4051 -0.6351 0.6576
vn 0.9780 0.1583 -0.1361
vn 0.6339 0.7663 -0.1048
vn 0.2937 -0.2307 0.9276
vn 0.3225 -0.5367 0.7797
vn 0.5166 -0.4229 0.7445
vn 0.3005 0.0734 0.9509
vn 0.9452 0.1671 -0.2805
vn 0.7706 0.4032 -0.4935
vn 0.3040 -0.3584 0.8827
vn 0.7495 -0.1306 0.6490
vn 0.8709 0.4914 0.0049
vn 0.2035 -0.4811 0.8527
vn 0.9685 -0.0028 0.2491
vn 0.7089 0.6379 -0.3010
vn 0.3388 -0.9257 -0.1680
vn 0.9998 0.0195 0.0003
vn 0.6599 0.7510 0.0209
vn 0.2415 -0.4085 0.8802
vn 0.9703 -0.0171 -0.2411
vn 0.2563 0.9553 -0.1474
vn 0.1800 0.6443 -0.7433
vn 0.1034 -0.9895 -0.1014
vn 0.3807 -0.3440 -0.8583
vn 0.7253 0.3884 0.5685
vn 0.9340 0.3475 -0.0833
vn 0.4614 -0.7943 -0.3953
vn -0.9595 -0.1980 0.2002
vn 0.2183 -0.2082 -0.9534
vn 0.9864 -0.0986 -0.1316
vn -0.0009 -0.9985 0.0550
vn 0.2237 0.0249 -0.9743
vn -0.9925 -0.1180 0.0315
vn 0.8391 -0.0203 -0.5437
vn -0.0271 0.0396 0.9988
vn 0.2236 -0.1394 -0.9647
vn 0.0330 0.0052 0.9994
vn 0.1956 -0.2026 -0.9595
vn -0.1283 0.1250 0.9838
vn 0.9849 -0.1075 -0.1359
vn 0.7149 -0.2518 -0.6523
vn 0.8500 -0.0762 0.5212
vn 0.7667 -0.0223 0.6416
vn 0.7280 -0.3426 -0.5939
vn 0.8437 -0.2473 0.4765
vn 0.9330 -0.1037 0.3446
vn 0.5170 0.8409 0.1600
vn 0.5063 0.8307 0.2315
vn -0.5469 0.2864 0.7867
vn 0.9209 -0.3703 -0.1220
vn -0.7571 0.5804 0.2998
vn 0.3131 -0.0336 0.9491
vn 0.0562 -0.5391 0.8403
vn 0.8025 -0.5806 -0.1375
vn 0.4639 0.4733 0.7488
vn 0.2452 0.6810 -0.6900
vn -0.7989 -0.6015 -0.0000
vn 0.1286 0.3722 -0.9192
vn -0.5865 -0.3706 0.7202
vn -0.0988 0.3621 -0.9269
vn -0.6707 -0.2642 0.6931
vn -0.6490 0.7482 -0.1377
vn -0.6325 -0.1409 0.7617
vn -0.3512 -0.8030 -0.4815
vn -0.9070 -0.3160 0.2783
vn -0.5852 -0.6744 -0.4502
vn -0.2547 -0.5587 -0.7893
vn -0.9271 -0.2723 0.2574
vn -0.9611 -0.2459 0.1261
vn -0.9837 -0.1478 -0.1028
vn -0.3325 -0.5937 -0.7327
vn -0.7416 -0.4700 0.4788
vn -0.2538 0.0700 0.9647
vn -0.4280 0.4444 0.7870
vn -0.1753 0.4001 -0.8995
vn -0.4051 -0.6351 0.6576
vn -0.9780 0.1583 -0.1361
vn -0.6339 0.7663 -0.1048
vn -0.2937 -0.2307 0.9276
vn -0.3225 -0.5367 0.7797
vn -0.5166 -0.4229 0.7445
vn -0.3005 0.0734 0.9509
vn -0.9452 0.1671 -0.2805
vn -0.7706 0.4032 -0.4935
vn -0.3040 -0.3584 0.8827
vn -0.7495 -0.1306 0.6490
vn -0.8709 0.4914 0.0049
vn -0.2035 -0.4811 0.8527
vn -0.9685 -0.0028 0.2491
vn -0.7089 0.6379 -0.3010
vn -0.3388 -0.9257 -0.1680
vn -0.9998 0.0195 0.0003
vn -0.6599 0.7510 0.0209
vn -0.2415 -0.4085 0.8802
vn -0.9703 -0.0171 -0.2411
vn -0.2563 0.9553 -0.1474
vn -0.1800 0.6443 -0.7433
vn -0.1034 -0.9895 -0.1014
vn -0.3807 -0.3440 -0.8583
vn -0.7253 0.3884 0.5685
vn -0.9340 0.3475 -0.0833
vn -0.4614 -0.7943 -0.3953
vn 0.9595 -0.1980 0.2002
vn -0.2183 -0.2082 -0.9534
vn -0.9864 -0.0986 -0.1316
vn 0.0009 -0.9985 0.0550
vn -0.2237 0.0249 -0.9743
vn 0.9925 -0.1180 0.0315
vn -0.8391 -0.0203 -0.5437
vn 0.0271 0.0396 0.9988
vn -0.2236 -0.1394 -0.9647
vn -0.0330 0.0052 0.9994
vn -0.1956 -0.2026 -0.9595
vn 0.1283 0.1250 0.9838
vn -0.9849 -0.1075 -0.1359
vn -0.7149 -0.2518 -0.6523
vn -0.8500 -0.0762 0.5212
vn -0.7667 -0.0223 0.6416
vn -0.7280 -0.3426 -0.5939
vn -0.8437 -0.2473 0.4765
vn -0.9330 -0.1037 0.3446
vn -0.5170 0.8409 0.1600
vn -0.5063 0.8307 0.2315
vn 0.5469 0.2864 0.7867
vn -0.9209 -0.3703 -0.1220
vn 0.7571 0.5804 0.2998
vn -0.3131 -0.0336 0.9491
vn -0.0562 -0.5391 0.8403
vn -0.8025 -0.5806 -0.1375
vn -0.4639 0.4733 0.7488
vn -0.2452 0.6810 -0.6900
vn 0.7989 -0.6015 -0.0000
vn -0.1286 0.3722 -0.9192
vn 0.5865 -0.3706 0.7202
vn 0.0988 0.3621 -0.9269
vn 0.6707 -0.2642 0.6931
vn 0.6490 0.7482 -0.1377
vn 0.6325 -0.1409 0.7617
vt 0.250000 0.625000
vt 0.375000 0.625000
vt 0.375000 0.750000
vt 0.250000 0.750000
vt 0.500000 0.625000
vt 0.549625 0.625000
vt 0.570491 0.750000
vt 0.500000 0.750000
vt 0.500000 0.500000
vt 0.500000 0.375000
vt 0.375000 0.375000
vt 0.447007 0.500000
vt 0.375000 0.500000
vt 0.500000 0.569959
vt 0.375000 0.576330
vt 0.545603 0.500000
vt 0.250000 0.500000
vt 0.250000 0.565487
vt 0.500000 0.815096
vt 0.500000 0.875000
vt 0.375000 0.875000
vt 0.549686 0.875000
vt 0.523130 0.875000
vt 0.625000 0.625000
vt 0.674538 0.625000
vt 0.750000 0.625000
vt 0.750000 0.750000
vt 0.625000 0.750000
vt 0.625000 0.500000
vt 0.690736 0.500000
vt 0.750000 0.500000
vt 0.578969 0.875000
vt 0.625000 0.875000
vt 0.588070 0.500000
vt 0.619670 0.469439
vt 0.706276 0.478138
vt 0.643256 0.446628
vt 0.000000 0.000000
s 0
usemtl Material
f 15/1/1 12/2/1 4/3/1 10/4/1
f 14/5/2 52/6/2 27/7/2 7/8/2
f 6/9/3 13/10/3 23/10/3 21/9/3
f 5/11/4 13/10/4 6/9/4 73/12/4 2/13/4
f 12/2/5 14/5/5 7/8/5 4/3/5
f 2/13/6 73/12/6 74/14/6 14/5/6 12/2/6 18/15/6
f 6/9/7 51/16/7 52/6/7 14/5/7 74/14/7
f 5/17/8 2/13/8 18/15/8 19/18/8
f 4/3/9 7/8/9 26/19/9 16/20/9 10/21/9
f 7/8/10 24/22/10 25/23/10 26/19/10
f 9/24/11 84/25/11 17/26/11 8/27/11 3/28/11
f 1/29/12 85/30/12 86/30/12 87/29/12
f 19/18/13 18/15/13 12/2/13 15/1/13
f 1/29/14 51/16/14 6/9/14 21/9/14 20/29/14
f 11/31/15 85/30/15 1/29/15 20/29/15 22/31/15
f 24/22/16 7/8/16 27/7/16 28/32/16
f 21/9/17 23/10/17 32/10/17 30/9/17
f 26/19/18 25/23/18 16/20/18
f 28/32/19 27/7/19 3/28/19 8/33/19
f 20/29/20 21/9/20 30/9/20 29/29/20
f 22/31/21 20/29/21 29/29/21 31/31/21
f 30/9/22 32/10/22 36/10/22 34/9/22
f 29/29/23 30/9/23 34/9/23 33/29/23
f 31/31/24 29/29/24 33/29/24 35/31/24
f 34/9/25 36/10/25 64/10/25 63/9/25
f 33/29/26 34/9/26 77/9/26 38/9/26 37/29/26
f 35/31/27 33/29/27 37/29/27 39/31/27
f 38/9/28 40/10/28 44/10/28 42/9/28
f 37/29/29 38/9/29 42/9/29 41/29/29
f 39/31/30 37/29/30 41/29/30 43/31/30
f 42/9/31 44/10/31 67/10/31 68/9/31
f 41/29/32 42/9/32 83/9/32 53/9/32 46/9/32 50/34/32 45/29/32
f 43/31/33 41/29/33 45/29/33 47/31/33
f 45/29/34 50/34/34 94/35/34 95/36/34 47/31/34
f 56/9/35 55/10/35 57/10/35 58/9/35 78/9/35
f 49/37/36 94/35/36 50/34/36 46/9/36 48/10/36
f 27/7/37 52/6/37 9/24/37 3/28/37
f 52/6/38 51/16/38 1/29/38 9/24/38
f 53/9/39 54/10/39 48/10/39 46/9/39
f 36/38/40 40/38/40 65/38/40 57/38/40 55/38/40 71/38/40 64/38/40
f 40/10/41 38/9/41 66/9/41 65/10/41
f 38/9/42 77/9/42 76/9/42 75/9/42 66/9/42
f 60/9/43 59/10/43 62/10/43 61/9/43 81/9/43
f 54/10/44 53/9/44 69/9/44 70/10/44
f 44/38/45 54/38/45 70/38/45 62/38/45 59/38/45 67/38/45
f 53/9/46 83/9/46 82/9/46 80/9/46 69/9/46
f 63/9/47 64/10/47 71/10/47 72/9/47
f 65/10/48 66/9/48 75/9/48 58/9/48 57/10/48
f 68/9/49 67/10/49 59/10/49 60/9/49 79/9/49
f 70/10/50 69/9/50 80/9/50 61/9/50 62/10/50
f 72/9/51 71/10/51 55/10/51 56/9/51
f 74/14/52 73/12/52 6/9/52
f 75/9/53 76/9/53 78/9/53 58/9/53
f 76/9/54 77/9/54 34/9/54 63/9/54 72/9/54
f 78/9/55 76/9/55 72/9/55 56/9/55
f 80/9/56 82/9/56 81/9/56 61/9/56
f 81/9/57 82/9/57 79/9/57 60/9/57
f 82/9/58 83/9/58 42/9/58 68/9/58 79/9/58
f 87/29/59 86/30/59 89/25/59 88/24/59
f 84/25/60 85/30/60 11/31/60 17/26/60
f 9/24/61 88/24/61 93/24/61 91/24/61
f 9/24/62 1/29/62 87/29/62 88/24/62
f 85/30/63 84/25/63 89/25/63 86/30/63
f 90/25/64 91/24/64 93/24/64 92/25/64
f 88/24/65 89/25/65 92/25/65 93/24/65
f 89/25/66 84/25/66 90/25/66 92/25/66
f 84/25/67 9/24/67 91/24/67 90/25/67
f 95/36/68 94/35/68 49/37/68
f 94/35/69 95/36/69 98/36/69 97/35/69
f 49/37/70 94/35/70 97/35/70 96/37/70
f 97/35/71 98/36/71 101/36/71 100/35/71
f 96/37/72 97/35/72 100/35/72 99/37/72
f 100/35/73 101/36/73 104/36/73 103/35/73
f 99/37/74 100/35/74 103/35/74 102/37/74
f 103/35/75 104/36/75 102/37/75
f 15/1/76 10/4/76 108/3/76 112/2/76
f 113/5/77 110/8/77 118/7/77 131/6/77
f 109/9/78 116/9/78 23/10/78 13/10/78
f 5/11/79 106/13/79 151/12/79 109/9/79 13/10/79
f 112/2/80 108/3/80 110/8/80 113/5/80
f 106/13/81 114/15/81 112/2/81 113/5/81 152/14/81 151/12/81
f 109/9/82 152/14/82 113/5/82 131/6/82 130/16/82
f 5/17/83 19/18/83 114/15/83 106/13/83
f 108/3/84 10/21/84 16/20/84 117/19/84 110/8/84
f 110/8/85 117/19/85 25/23/85 24/22/85
f 111/24/86 107/28/86 8/27/86 17/26/86 162/25/86
f 105/29/87 165/29/87 164/30/87 163/30/87
f 19/18/88 15/1/88 112/2/88 114/15/88
f 105/29/89 115/29/89 116/9/89 109/9/89 130/16/89
f 11/31/90 22/31/90 115/29/90 105/29/90 163/30/90
f 24/22/91 28/32/91 118/7/91 110/8/91
f 116/9/92 120/9/92 32/10/92 23/10/92
f 117/19/93 16/20/93 25/23/93
f 28/32/94 8/33/94 107/28/94 118/7/94
f 115/29/95 119/29/95 120/9/95 116/9/95
f 22/31/96 31/31/96 119/29/96 115/29/96
f 120/9/97 122/9/97 36/10/97 32/10/97
f 119/29/98 121/29/98 122/9/98 120/9/98
f 31/31/99 35/31/99 121/29/99 119/29/99
f 122/9/100 141/9/100 142/10/100 36/10/100
f 121/29/101 123/29/101 124/9/101 155/9/101 122/9/101
f 35/31/102 39/31/102 123/29/102 121/29/102
f 124/9/103 126/9/103 44/10/103 40/10/103
f 123/29/104 125/29/104 126/9/104 124/9/104
f 39/31/105 43/31/105 125/29/105 123/29/105
f 126/9/106 146/9/106 145/10/106 44/10/106
f 125/29/107 127/29/107 129/34/107 128/9/107 132/9/107 161/9/107 126/9/107
f 43/31/108 47/31/108 127/29/108 125/29/108
f 127/29/109 47/31/109 95/36/109 172/35/109 129/34/109
f 134/9/110 156/9/110 136/9/110 135/10/110 133/10/110
f 49/37/111 48/10/111 128/9/111 129/34/111 172/35/111
f 118/7/112 107/28/112 111/24/112 131/6/112
f 131/6/113 111/24/113 105/29/113 130/16/113
f 132/9/114 128/9/114 48/10/114 54/10/114
f 36/38/115 142/38/115 149/38/115 133/38/115 135/38/115 143/38/115 40/38/115
f 40/10/116 143/10/116 144/9/116 124/9/116
f 124/9/117 144/9/117 153/9/117 154/9/117 155/9/117
f 138/9/118 159/9/118 139/9/118 140/10/118 137/10/118
f 54/10/119 148/10/119 147/9/119 132/9/119
f 44/38/120 145/38/120 137/38/120 140/38/120 148/38/120 54/38/120
f 132/9/121 147/9/121 158/9/121 160/9/121 161/9/121
f 141/9/122 150/9/122 149/10/122 142/10/122
f 143/10/123 135/10/123 136/9/123 153/9/123 144/9/123
f 146/9/124 157/9/124 138/9/124 137/10/124 145/10/124
f 148/10/125 140/10/125 139/9/125 158/9/125 147/9/125
f 150/9/126 134/9/126 133/10/126 149/10/126
f 152/14/127 109/9/127 151/12/127
f 153/9/128 136/9/128 156/9/128 154/9/128
f 154/9/129 150/9/129 141/9/129 122/9/129 155/9/129
f 156/9/130 134/9/130 150/9/130 154/9/130
f 158/9/131 139/9/131 159/9/131 160/9/131
f 159/9/132 138/9/132 157/9/132 160/9/132
f 160/9/133 157/9/133 146/9/133 126/9/133 161/9/133
f 165/29/134 166/24/134 167/25/134 164/30/134
f 162/25/135 17/26/135 11/31/135 163/30/135
f 111/24/136 169/24/136 171/24/136 166/24/136
f 111/24/137 166/24/137 165/29/137 105/29/137
f 163/30/138 164/30/138 167/25/138 162/25/138
f 168/25/139 170/25/139 171/24/139 169/24/139
f 166/24/140 171/24/140 170/25/140 167/25/140
f 167/25/141 170/25/141 168/25/141 162/25/141
f 162/25/142 168/25/142 169/24/142 111/24/142
f 95/36/143 49/37/143 172/35/143
f 172/35/144 173/35/144 98/36/144 95/36/144
f 49/37/145 96/37/145 173/35/145 172/35/145
f 173/35/146 174/35/146 101/36/146 98/36/146
f 96/37/147 99/37/147 174/35/147 173/35/147
f 174/35/148 175/35/148 104/36/148 101/36/148
f 99/37/149 102/37/149 175/35/149 174/35/149
f 175/35/150 102/37/150 104/36/150
